<svg width="400" height="400" xmlns="http://www.w3.org/2000/svg" xmlns:svg="http://www.w3.org/2000/svg">
 <style type="text/css">.st0{opacity:0.15;fill:#292F33;}
    .st1{fill:#FFFFFF;}</style>

 <g>
  <title>Layer 1</title>
  <g id="Logo__x2014__FIXED">
   <g id="svg_2">
    <path id="svg_3" d="m153.600006,301.600006c94.300003,0 145.899994,-78.199997 145.899994,-145.899994c0,-2.199997 0,-4.400009 -0.100006,-6.600006c10,-7.199997 18.700012,-16.300003 25.600006,-26.599998c-9.200012,4.100006 -19.100006,6.799995 -29.5,8.099998c10.600006,-6.299995 18.700012,-16.399994 22.600006,-28.399994c-9.899994,5.900002 -20.899994,10.099998 -32.600006,12.400002c-9.399994,-10 -22.700012,-16.200005 -37.399994,-16.200005c-28.300003,0 -51.300003,23 -51.300003,51.300003c0,4 0.5,7.899994 1.300003,11.699997c-42.600006,-2.100006 -80.400009,-22.600006 -105.700005,-53.599998c-4.400002,7.599998 -6.900002,16.400002 -6.900002,25.799995c0,17.800003 9.099998,33.5 22.800003,42.699997c-8.400002,-0.299988 -16.300003,-2.599991 -23.200005,-6.399994c0,0.199997 0,0.399994 0,0.699997c0,24.800003 17.700005,45.600006 41.099998,50.300003c-4.299995,1.199997 -8.799995,1.800003 -13.5,1.800003c-3.299995,0 -6.5,-0.300003 -9.599998,-0.900009c6.5,20.400009 25.500008,35.199997 47.900002,35.600021c-17.600006,13.799988 -39.699997,22 -63.699997,22c-4.100006,0 -8.200005,-0.200012 -12.200005,-0.700012c22.599998,14.399994 49.599998,22.899994 78.500008,22.899994" class="st1"/>
   </g>
  </g>
 </g>
</svg>
